<svg version="1.1" xmlns="http://www.w3.org/2000/svg" xmlns:xlink="http://www.w3.org/1999/xlink" width="1408" height="1536" viewBox="0,0,1408,1536"><g transform="translate(458.57627,823.3898)"><g data-paper-data="{&quot;isPaintingLayer&quot;:true}" fill="#ffffff" fill-rule="nonzero" stroke="none" stroke-width="1" stroke-linecap="butt" stroke-linejoin="miter" stroke-miterlimit="10" stroke-dasharray="" stroke-dashoffset="0" style="mix-blend-mode: normal"><path d="M949.42373,453.6102c0,80 -24.33333,143.16667 -73,189.5c-48.66667,46.33333 -113.33333,69.5 -194,69.5h-874c-80.66667,0 -145.33333,-23.16667 -194,-69.5c-48.66667,-46.33333 -73,-109.5 -73,-189.5c0,-35.33333 1.16667,-69.83333 3.5,-103.5c2.33333,-33.66667 7,-70 14,-109c7,-39 15.83333,-75.16667 26.5,-108.5c10.66667,-33.33333 25,-65.83333 43,-97.5c18,-31.66667 38.66667,-58.66667 62,-81c23.33333,-22.33333 51.83333,-40.16667 85.5,-53.5c33.66667,-13.33333 70.83333,-20 111.5,-20c6,0 20,7.16667 42,21.5c22,14.33333 46.83333,30.33333 74.5,48c27.66667,17.66667 63.66667,33.66667 108,48c44.33333,14.33333 88.83333,21.5 133.5,21.5c44.66667,0 89.16667,-7.16667 133.5,-21.5c44.33333,-14.33333 80.33333,-30.33333 108,-48c27.66667,-17.66667 52.5,-33.66667 74.5,-48c22,-14.33333 36,-21.5 42,-21.5c40.66667,0 77.83333,6.66667 111.5,20c33.66667,13.33333 62.16667,31.16667 85.5,53.5c23.33333,22.33333 44,49.33333 62,81c18,31.66667 32.33333,64.16667 43,97.5c10.66667,33.33333 19.5,69.5 26.5,108.5c7,39 11.66667,75.33333 14,109c2.33333,33.66667 3.5,68.16667 3.5,103.5zM629.42373,-439.3898c0,106 -37.5,196.5 -112.5,271.5c-75,75 -165.5,112.5 -271.5,112.5c-106,0 -196.5,-37.5 -271.5,-112.5c-75,-75 -112.5,-165.5 -112.5,-271.5c0,-106 37.5,-196.5 112.5,-271.5c75,-75 165.5,-112.5 271.5,-112.5c106,0 196.5,37.5 271.5,112.5c75,75 112.5,165.5 112.5,271.5z"/></g></g></svg>